<svg width="16" height="16" viewBox="0 0 16 16" fill="none" xmlns="http://www.w3.org/2000/svg">
<path d="M1.51185 8.89225L3.7696 11.1733C3.82383 11.228 3.88836 11.2714 3.95945 11.301C4.03054 11.3307 4.1068 11.3459 4.18381 11.3459C4.26083 11.3459 4.33708 11.3307 4.40817 11.301C4.47926 11.2714 4.54379 11.228 4.59802 11.1733C4.6527 11.1191 4.6961 11.0546 4.72572 10.9835C4.75534 10.9124 4.77059 10.8361 4.77059 10.7591C4.77059 10.6821 4.75534 10.6059 4.72572 10.5348C4.6961 10.4637 4.6527 10.3991 4.59802 10.3449L2.52113 8.25635H14.4166C14.5713 8.25635 14.7197 8.19489 14.8291 8.08548C14.9385 7.97607 15 7.82768 15 7.67295C15 7.51823 14.9385 7.36984 14.8291 7.26043C14.7197 7.15102 14.5713 7.08956 14.4166 7.08956H2.48612L4.59802 4.97766C4.70145 4.86916 4.75915 4.72501 4.75915 4.57511C4.75915 4.42521 4.70145 4.28107 4.59802 4.17257C4.54379 4.11789 4.47926 4.07449 4.40817 4.04487C4.33708 4.01525 4.26083 4 4.18381 4C4.1068 4 4.03054 4.01525 3.95945 4.04487C3.88836 4.07449 3.82383 4.11789 3.7696 4.17257L1.51185 6.41865C1.1841 6.74681 1 7.19165 1 7.65545C1 8.11925 1.1841 8.56409 1.51185 8.89225Z" fill="black"/>
</svg>
