<svg width="16" height="17" viewBox="0 0 16 17" fill="none" xmlns="http://www.w3.org/2000/svg">
<path fill-rule="evenodd" clip-rule="evenodd" d="M4.41042 14.6088C4.14763 14.3459 4 13.9895 4 13.6177C4 13.2461 4.14763 12.8895 4.41042 12.6267L9.0264 8.01076L4.41042 3.39479C4.15508 3.13042 4.01378 2.77632 4.01698 2.40879C4.02017 2.04125 4.16759 1.68968 4.42749 1.42978C4.68739 1.16988 5.03897 1.02246 5.4065 1.01926C5.77403 1.01608 6.12811 1.15736 6.3925 1.41271L11.9995 7.01972C12.2624 7.28259 12.41 7.63905 12.41 8.01076C12.41 8.38247 12.2624 8.73894 11.9995 9.00177L6.3925 14.6088C6.12963 14.8716 5.77315 15.0192 5.40146 15.0192C5.02976 15.0192 4.67328 14.8716 4.41042 14.6088Z" fill="#263238"/>
</svg>
