<svg width="18" height="17" viewBox="0 0 18 17" fill="none" xmlns="http://www.w3.org/2000/svg">
<path fill-rule="evenodd" clip-rule="evenodd" d="M12.6054 1.4383C12.8676 1.70176 13.0143 2.05858 13.0135 2.43032C13.0126 2.80193 12.8641 3.15818 12.6007 3.42037L7.97358 8.0252L12.5784 12.6523C12.8332 12.9172 12.9736 13.2717 12.9695 13.6392C12.9654 14.0067 12.8172 14.3579 12.5567 14.6172C12.2961 14.8765 11.9442 15.0231 11.5767 15.0254C11.2091 15.0277 10.8554 14.8855 10.5916 14.6296L4.99809 9.00909C4.73589 8.74559 4.58915 8.38877 4.59004 8.01706C4.59093 7.64535 4.73939 7.28924 5.00285 7.02704L10.6233 1.43353C10.8868 1.17134 11.2437 1.02459 11.6154 1.02549C11.9871 1.02638 12.3432 1.17484 12.6054 1.4383Z" fill="#263238"/>
</svg>
