<svg width="16" height="16" viewBox="0 0 16 16" fill="none" xmlns="http://www.w3.org/2000/svg">
<path d="M10.5072 5.83467L11.3262 6.66592L7.94692 9.995C7.72117 10.2207 7.42425 10.3333 7.12617 10.3333C6.82808 10.3333 6.52825 10.2196 6.30017 9.99208L4.67733 8.41942L5.48992 7.58117L7.11917 9.16025L10.5072 5.83467ZM15 8C15 11.8599 11.8599 15 8 15C4.14008 15 1 11.8599 1 8C1 4.14008 4.14008 1 8 1C11.8599 1 15 4.14008 15 8ZM13.8333 8C13.8333 4.7835 11.2165 2.16667 8 2.16667C4.7835 2.16667 2.16667 4.7835 2.16667 8C2.16667 11.2165 4.7835 13.8333 8 13.8333C11.2165 13.8333 13.8333 11.2165 13.8333 8Z" fill="black"/>
</svg>
