<svg width="16" height="16" viewBox="0 0 16 16" fill="none" xmlns="http://www.w3.org/2000/svg">
<path d="M12.0833 2H3.91667C2.30842 2 1 3.30842 1 4.91667V10.75C1 12.3583 2.30842 13.6667 3.91667 13.6667H12.0833C13.6916 13.6667 15 12.3583 15 10.75V4.91667C15 3.30842 13.6916 2 12.0833 2ZM9.75 3.16667V12.5H6.25V3.16667H9.75ZM2.16667 10.75V4.91667C2.16667 3.95183 2.95183 3.16667 3.91667 3.16667H5.08333V12.5H3.91667C2.95183 12.5 2.16667 11.7148 2.16667 10.75ZM13.8333 10.75C13.8333 11.7148 13.0482 12.5 12.0833 12.5H10.9167V3.16667H12.0833C13.0482 3.16667 13.8333 3.95183 13.8333 4.91667V10.75Z" fill="black"/>
</svg>
