<svg width="16" height="16" viewBox="0 0 16 16" fill="none" xmlns="http://www.w3.org/2000/svg">
<path d="M12.0833 1H3.91667C3.1434 1.00101 2.40208 1.33656 1.85529 1.93305C1.30851 2.52954 1.00093 3.33826 1 4.18182L1 11.8182C1.00093 12.6617 1.30851 13.4705 1.85529 14.067C2.40208 14.6634 3.1434 14.999 3.91667 15H12.0833C12.8566 14.999 13.5979 14.6634 14.1447 14.067C14.6915 13.4705 14.9991 12.6617 15 11.8182V4.18182C14.9991 3.33826 14.6915 2.52954 14.1447 1.93305C13.5979 1.33656 12.8566 1.00101 12.0833 1ZM3.91667 2.27273H12.0833C12.4326 2.27348 12.7737 2.38824 13.0627 2.60224C13.3517 2.81624 13.5754 3.11969 13.705 3.47355L9.23783 8.34745C8.90908 8.70465 8.46399 8.90521 8 8.90521C7.53601 8.90521 7.09092 8.70465 6.76217 8.34745L2.295 3.47355C2.42459 3.11969 2.64827 2.81624 2.93728 2.60224C3.22628 2.38824 3.56738 2.27348 3.91667 2.27273ZM12.0833 13.7273H3.91667C3.45254 13.7273 3.00742 13.5261 2.67923 13.1681C2.35104 12.8101 2.16667 12.3245 2.16667 11.8182V5.13636L5.93733 9.24727C6.48487 9.84307 7.22665 10.1777 8 10.1777C8.77335 10.1777 9.51513 9.84307 10.0627 9.24727L13.8333 5.13636V11.8182C13.8333 12.3245 13.649 12.8101 13.3208 13.1681C12.9926 13.5261 12.5475 13.7273 12.0833 13.7273Z" fill="black"/>
</svg>
