<svg width="16" height="16" viewBox="0 0 16 16" fill="none" xmlns="http://www.w3.org/2000/svg">
<path d="M15.6092 8C15.6077 7.58961 15.5136 7.18486 15.3338 6.81596C15.1539 6.44706 14.8931 6.12354 14.5707 5.86957C15.0167 5.518 15.3419 5.03599 15.5008 4.49078C15.6597 3.94557 15.6444 3.36436 15.4572 2.82823C15.2699 2.29209 14.92 1.82777 14.4562 1.50004C13.9925 1.1723 13.4379 0.997506 12.8701 1.00003H3.73966C3.17177 0.997506 2.61726 1.1723 2.15348 1.50004C1.6897 1.82777 1.33977 2.29209 1.15253 2.82823C0.965282 3.36436 0.950051 3.94557 1.10896 4.49078C1.26787 5.03599 1.59299 5.518 2.03897 5.86957C1.71548 6.12253 1.45384 6.44583 1.2739 6.81496C1.09396 7.18409 1.00044 7.58935 1.00044 8C1.00044 8.41065 1.09396 8.81591 1.2739 9.18504C1.45384 9.55417 1.71548 9.87747 2.03897 10.1304C1.59299 10.482 1.26787 10.964 1.10896 11.5092C0.950051 12.0544 0.965282 12.6356 1.15253 13.1718C1.33977 13.7079 1.6897 14.1722 2.15348 14.5C2.61726 14.8277 3.17177 15.0025 3.73966 15H12.8701C13.4379 15.0025 13.9925 14.8277 14.4562 14.5C14.92 14.1722 15.2699 13.7079 15.4572 13.1718C15.6444 12.6356 15.6597 12.0544 15.5008 11.5092C15.3419 10.964 15.0167 10.482 14.5707 10.1304C14.8931 9.87646 15.1539 9.55294 15.3338 9.18404C15.5136 8.81514 15.6077 8.41039 15.6092 8ZM2.21793 3.73915C2.21793 3.33556 2.37825 2.9485 2.66363 2.66312C2.94901 2.37774 3.33607 2.21741 3.73966 2.21741H4.04401V2.82611C4.04401 2.98754 4.10814 3.14237 4.22229 3.25652C4.33644 3.37067 4.49127 3.4348 4.6527 3.4348C4.81414 3.4348 4.96896 3.37067 5.08311 3.25652C5.19726 3.14237 5.26139 2.98754 5.26139 2.82611V2.21741H6.47878V2.82611C6.47878 2.98754 6.54291 3.14237 6.65706 3.25652C6.77122 3.37067 6.92604 3.4348 7.08747 3.4348C7.24891 3.4348 7.40373 3.37067 7.51789 3.25652C7.63204 3.14237 7.69617 2.98754 7.69617 2.82611V2.21741H12.8701C13.2736 2.21741 13.6607 2.37774 13.9461 2.66312C14.2315 2.9485 14.3918 3.33556 14.3918 3.73915C14.3918 4.14274 14.2315 4.52979 13.9461 4.81517C13.6607 5.10056 13.2736 5.26088 12.8701 5.26088H3.73966C3.33607 5.26088 2.94901 5.10056 2.66363 4.81517C2.37825 4.52979 2.21793 4.14274 2.21793 3.73915ZM14.3918 12.2609C14.3918 12.6644 14.2315 13.0515 13.9461 13.3369C13.6607 13.6223 13.2736 13.7826 12.8701 13.7826H3.73966C3.33607 13.7826 2.94901 13.6223 2.66363 13.3369C2.37825 13.0515 2.21793 12.6644 2.21793 12.2609C2.21793 11.8573 2.37825 11.4702 2.66363 11.1848C2.94901 10.8994 3.33607 10.7391 3.73966 10.7391H4.04401V11.3478C4.04401 11.5092 4.10814 11.6641 4.22229 11.7782C4.33644 11.8924 4.49127 11.9565 4.6527 11.9565C4.81414 11.9565 4.96896 11.8924 5.08311 11.7782C5.19726 11.6641 5.26139 11.5092 5.26139 11.3478V10.7391H6.47878V11.3478C6.47878 11.5092 6.54291 11.6641 6.65706 11.7782C6.77122 11.8924 6.92604 11.9565 7.08747 11.9565C7.24891 11.9565 7.40373 11.8924 7.51789 11.7782C7.63204 11.6641 7.69617 11.5092 7.69617 11.3478V10.7391H12.8701C13.2736 10.7391 13.6607 10.8994 13.9461 11.1848C14.2315 11.4702 14.3918 11.8573 14.3918 12.2609ZM3.73966 9.52173C3.33607 9.52173 2.94901 9.36141 2.66363 9.07603C2.37825 8.79065 2.21793 8.40359 2.21793 8C2.21793 7.59641 2.37825 7.20935 2.66363 6.92397C2.94901 6.63859 3.33607 6.47827 3.73966 6.47827H4.04401V7.08696C4.04401 7.2484 4.10814 7.40322 4.22229 7.51737C4.33644 7.63152 4.49127 7.69565 4.6527 7.69565C4.81414 7.69565 4.96896 7.63152 5.08311 7.51737C5.19726 7.40322 5.26139 7.2484 5.26139 7.08696V6.47827H6.47878V7.08696C6.47878 7.2484 6.54291 7.40322 6.65706 7.51737C6.77122 7.63152 6.92604 7.69565 7.08747 7.69565C7.24891 7.69565 7.40373 7.63152 7.51789 7.51737C7.63204 7.40322 7.69617 7.2484 7.69617 7.08696V6.47827H12.8701C13.2736 6.47827 13.6607 6.63859 13.9461 6.92397C14.2315 7.20935 14.3918 7.59641 14.3918 8C14.3918 8.40359 14.2315 8.79065 13.9461 9.07603C13.6607 9.36141 13.2736 9.52173 12.8701 9.52173H3.73966Z" fill="black"/>
</svg>
