<svg width="16" height="16" viewBox="0 0 16 16" fill="none" xmlns="http://www.w3.org/2000/svg">
<path d="M11.0625 9.45834C11.0625 9.61857 10.9988 9.77225 10.8855 9.88555C10.7722 9.99885 10.6186 10.0625 10.4583 10.0625H5.625C5.46476 10.0625 5.31109 9.99885 5.19779 9.88555C5.08448 9.77225 5.02083 9.61857 5.02083 9.45834C5.02083 9.2981 5.08448 9.14443 5.19779 9.03113C5.31109 8.91783 5.46476 8.85417 5.625 8.85417H10.4583C10.6186 8.85417 10.7722 8.91783 10.8855 9.03113C10.9988 9.14443 11.0625 9.2981 11.0625 9.45834ZM8.64583 11.2708H5.625C5.46476 11.2708 5.31109 11.3345 5.19779 11.4478C5.08448 11.5611 5.02083 11.7148 5.02083 11.875C5.02083 12.0352 5.08448 12.1889 5.19779 12.3022C5.31109 12.4155 5.46476 12.4792 5.625 12.4792H8.64583C8.80606 12.4792 8.95973 12.4155 9.07304 12.3022C9.18634 12.1889 9.24999 12.0352 9.24999 11.875C9.24999 11.7148 9.18634 11.5611 9.07304 11.4478C8.95973 11.3345 8.80606 11.2708 8.64583 11.2708ZM14.0833 7.3347V12.4792C14.0824 13.28 13.7638 14.0479 13.1975 14.6142C12.6312 15.1805 11.8634 15.499 11.0625 15.5H5.02083C4.21995 15.499 3.45215 15.1805 2.88584 14.6142C2.31953 14.0479 2.00096 13.28 2 12.4792V4.02084C2.00096 3.21996 2.31953 2.45216 2.88584 1.88585C3.45215 1.31955 4.21995 1.00097 5.02083 1.00001H7.74864C8.30424 0.998584 8.85462 1.10731 9.36794 1.3199C9.88126 1.53248 10.3474 1.84472 10.7393 2.23855L12.8442 4.34468C13.2382 4.73632 13.5507 5.20227 13.7634 5.71551C13.9761 6.22876 14.0848 6.77912 14.0833 7.3347ZM9.88497 3.09285C9.69483 2.90867 9.48135 2.75024 9.24999 2.6216V5.22918C9.24999 5.38941 9.31365 5.54308 9.42695 5.65639C9.54025 5.76969 9.69392 5.83334 9.85416 5.83334H12.4617C12.333 5.60206 12.1744 5.38876 11.9899 5.19897L9.88497 3.09285ZM12.875 7.3347C12.875 7.23501 12.8557 7.13955 12.8466 7.04167H9.85416C9.37345 7.04167 8.91244 6.85072 8.57253 6.51081C8.23262 6.1709 8.04166 5.70988 8.04166 5.22918V2.23674C7.94379 2.22768 7.84772 2.20835 7.74864 2.20835H5.02083C4.54013 2.20835 4.07911 2.39931 3.7392 2.73921C3.39929 3.07912 3.20833 3.54014 3.20833 4.02084V12.4792C3.20833 12.9599 3.39929 13.4209 3.7392 13.7608C4.07911 14.1007 4.54013 14.2917 5.02083 14.2917H11.0625C11.5432 14.2917 12.0042 14.1007 12.3441 13.7608C12.684 13.4209 12.875 12.9599 12.875 12.4792V7.3347Z" fill="black"/>
</svg>
