<svg width="16" height="16" viewBox="0 0 16 16" fill="none" xmlns="http://www.w3.org/2000/svg">
<path d="M8 1C6.61553 1 5.26215 1.41054 4.11101 2.17971C2.95987 2.94888 2.06266 4.04213 1.53285 5.32122C1.00303 6.6003 0.86441 8.00776 1.13451 9.36563C1.4046 10.7235 2.07129 11.9708 3.05026 12.9497C4.02922 13.9287 5.2765 14.5954 6.63437 14.8655C7.99224 15.1356 9.3997 14.997 10.6788 14.4672C11.9579 13.9373 13.0511 13.0401 13.8203 11.889C14.5895 10.7378 15 9.38447 15 8C14.998 6.1441 14.2599 4.36479 12.9475 3.05247C11.6352 1.74015 9.8559 1.00201 8 1ZM8 13.8333C6.84628 13.8333 5.71846 13.4912 4.75918 12.8502C3.79989 12.2093 3.05222 11.2982 2.61071 10.2323C2.16919 9.16642 2.05368 7.99353 2.27876 6.86197C2.50384 5.73042 3.05941 4.69102 3.87521 3.87521C4.69102 3.0594 5.73042 2.50383 6.86198 2.27875C7.99353 2.05367 9.16642 2.16919 10.2323 2.6107C11.2982 3.05221 12.2093 3.79989 12.8502 4.75917C13.4912 5.71846 13.8333 6.84627 13.8333 8C13.8316 9.54657 13.2165 11.0293 12.1229 12.1229C11.0293 13.2165 9.54658 13.8316 8 13.8333Z" fill="black"/>
<path d="M8.00008 3.91667C7.84537 3.91667 7.697 3.97813 7.5876 4.08753C7.47821 4.19692 7.41675 4.3453 7.41675 4.50001V9.16667C7.41675 9.32138 7.47821 9.46975 7.5876 9.57915C7.697 9.68855 7.84537 9.75 8.00008 9.75C8.15479 9.75 8.30316 9.68855 8.41256 9.57915C8.52196 9.46975 8.58341 9.32138 8.58341 9.16667V4.50001C8.58341 4.3453 8.52196 4.19692 8.41256 4.08753C8.30316 3.97813 8.15479 3.91667 8.00008 3.91667Z" fill="black"/>
<path d="M8.58341 11.5C8.58341 11.1778 8.32225 10.9167 8.00008 10.9167C7.67792 10.9167 7.41675 11.1778 7.41675 11.5C7.41675 11.8222 7.67792 12.0833 8.00008 12.0833C8.32225 12.0833 8.58341 11.8222 8.58341 11.5Z" fill="black"/>
</svg>
