<svg width="16" height="16" viewBox="0 0 16 16" fill="none" xmlns="http://www.w3.org/2000/svg">
<path d="M14.3168 6.35032L12.0541 4.08757C11.8223 3.86376 11.453 3.87019 11.2292 4.10193C11.0109 4.32798 11.0109 4.68637 11.2292 4.91242L13.492 7.17517C13.5592 7.24373 13.618 7.32012 13.667 7.40267C13.6582 7.40267 13.6512 7.398 13.6425 7.398L4.49348 7.41667C4.17132 7.41667 3.91016 7.67783 3.91016 8C3.91016 8.32216 4.17132 8.58332 4.49348 8.58332L13.639 8.56465C13.6553 8.56465 13.6687 8.55647 13.6845 8.55532C13.6327 8.65401 13.5671 8.74476 13.4897 8.82482L11.2269 11.0876C10.9952 11.3114 10.9887 11.6807 11.2126 11.9124C11.4364 12.1441 11.8056 12.1506 12.0374 11.9268C12.0422 11.922 12.047 11.9173 12.0517 11.9124L14.3145 9.64965C15.2254 8.73847 15.2254 7.26147 14.3145 6.35032H14.3168Z" fill="black"/>
<path d="M5.08332 13.8333H3.91665C2.95016 13.8333 2.16665 13.0498 2.16665 12.0833V3.91668C2.16665 2.95018 2.95016 2.16668 3.91665 2.16668H5.08332C5.40549 2.16668 5.66665 1.90552 5.66665 1.58335C5.66665 1.26119 5.40552 1 5.08332 1H3.91665C2.30665 1.00194 1.00194 2.30665 1 3.91668V12.0834C1.00194 13.6934 2.30665 14.9981 3.91668 15H5.08335C5.40552 15 5.66668 14.7388 5.66668 14.4167C5.66668 14.0945 5.40552 13.8333 5.08332 13.8333Z" fill="black"/>
</svg>
