<svg width="16" height="16" viewBox="0 0 16 16" fill="none" xmlns="http://www.w3.org/2000/svg">
<g id="Export">
<path id="Vector" d="M7.75585 0.0366392C7.62063 0.0666952 7.39904 0.277083 5.83284 1.84748C4.11266 3.57192 4.06383 3.62451 4.01876 3.81236C3.89106 4.3759 4.40937 4.89436 4.97275 4.76286C5.15303 4.72154 5.21313 4.6727 6.1596 3.72971C6.70796 3.18495 7.16993 2.73788 7.18495 2.73788C7.19998 2.73788 7.21125 4.51491 7.21125 6.68266C7.21125 10.4884 7.215 10.635 7.28261 10.7702C7.42909 11.052 7.66195 11.191 7.99998 11.191C8.338 11.191 8.57087 11.052 8.71735 10.7702C8.78495 10.635 8.78871 10.4884 8.78871 6.68266C8.78871 4.51491 8.79997 2.73788 8.815 2.73788C8.83002 2.73788 9.29199 3.18495 9.84035 3.72971C10.7868 4.6727 10.8469 4.72154 11.0272 4.76286C11.5906 4.89436 12.1089 4.3759 11.9812 3.81236C11.9361 3.62451 11.8835 3.56816 10.1671 1.84748C8.58589 0.262055 8.38683 0.0742092 8.24035 0.0366392C8.05631 -0.0122004 7.96617 -0.0122004 7.75585 0.0366392Z" fill="black"/>
<path id="Vector_2" d="M0.431924 9.67692C0.266666 9.76333 0.15399 9.87604 0.0713614 10.0338C0.00375586 10.1653 0 10.278 0 12.0626C0 14.1665 0.00375586 14.2078 0.251643 14.7225C0.439436 15.117 0.882627 15.5603 1.27699 15.7481C1.83286 16.0149 1.40094 15.9998 7.99999 15.9998C14.599 15.9998 14.1671 16.0149 14.723 15.7481C15.1098 15.564 15.5605 15.1132 15.7483 14.7187C15.9962 14.2115 16 14.1627 16 12.0626C16 10 16.0075 10.0714 15.7784 9.8272C15.5117 9.53792 14.9634 9.53416 14.6554 9.81593C14.4375 10.0113 14.4413 9.96245 14.4225 11.9799C14.4037 13.7044 14.4 13.8509 14.3324 13.9711C14.2347 14.1552 14.1634 14.2303 13.9906 14.3243L13.8404 14.4031H7.99999C2.36619 14.4031 2.15586 14.3994 2.02817 14.3318C1.84413 14.2341 1.76901 14.1627 1.67511 13.9899C1.6 13.8434 1.59624 13.7908 1.57746 11.9799C1.56244 10.5035 1.54742 10.1015 1.5061 10.0263C1.42347 9.87229 1.26573 9.72201 1.13051 9.66565C0.961501 9.59427 0.574647 9.60179 0.431924 9.67692Z" fill="black"/>
</g>
</svg>
