<svg width="16" height="16" viewBox="0 0 16 16" fill="none" xmlns="http://www.w3.org/2000/svg">
<path d="M1.58333 3.76546H3.17933C3.30454 4.22614 3.57785 4.63282 3.95711 4.92275C4.33636 5.21269 4.80049 5.36978 5.27787 5.36978C5.75526 5.36978 6.21939 5.21269 6.59864 4.92275C6.9779 4.63282 7.25121 4.22614 7.37642 3.76546H14.4167C14.5714 3.76546 14.7197 3.704 14.8291 3.59461C14.9385 3.48521 15 3.33684 15 3.18213C15 3.02742 14.9385 2.87904 14.8291 2.76965C14.7197 2.66025 14.5714 2.59879 14.4167 2.59879H7.37642C7.25121 2.13812 6.9779 1.73144 6.59864 1.4415C6.21939 1.15156 5.75526 0.994476 5.27787 0.994476C4.80049 0.994476 4.33636 1.15156 3.95711 1.4415C3.57785 1.73144 3.30454 2.13812 3.17933 2.59879H1.58333C1.42862 2.59879 1.28025 2.66025 1.17085 2.76965C1.06146 2.87904 1 3.02742 1 3.18213C1 3.33684 1.06146 3.48521 1.17085 3.59461C1.28025 3.704 1.42862 3.76546 1.58333 3.76546ZM5.27758 2.16129C5.47949 2.16129 5.67685 2.22116 5.84473 2.33334C6.0126 2.44551 6.14345 2.60494 6.22071 2.79147C6.29797 2.978 6.31819 3.18326 6.2788 3.38128C6.23941 3.5793 6.14219 3.7612 5.99942 3.90397C5.85666 4.04673 5.67476 4.14396 5.47674 4.18335C5.27872 4.22273 5.07346 4.20252 4.88693 4.12525C4.70039 4.04799 4.54096 3.91715 4.42879 3.74927C4.31662 3.5814 4.25675 3.38403 4.25675 3.18213C4.25706 2.91148 4.36471 2.65201 4.55609 2.46063C4.74746 2.26925 5.00694 2.1616 5.27758 2.16129Z" fill="black"/>
<path d="M14.4167 7.41129H12.8207C12.6957 6.95051 12.4225 6.54368 12.0432 6.25362C11.664 5.96357 11.1999 5.8064 10.7224 5.8064C10.245 5.8064 9.78082 5.96357 9.40159 6.25362C9.02237 6.54368 8.74916 6.95051 8.62417 7.41129H1.58333C1.42862 7.41129 1.28025 7.47275 1.17085 7.58215C1.06146 7.69154 1 7.83991 1 7.99462C1 8.14933 1.06146 8.29771 1.17085 8.4071C1.28025 8.5165 1.42862 8.57796 1.58333 8.57796H8.62417C8.74916 9.03874 9.02237 9.44557 9.40159 9.73562C9.78082 10.0257 10.245 10.1828 10.7224 10.1828C11.1999 10.1828 11.664 10.0257 12.0432 9.73562C12.4225 9.44557 12.6957 9.03874 12.8207 8.57796H14.4167C14.5714 8.57796 14.7197 8.5165 14.8291 8.4071C14.9385 8.29771 15 8.14933 15 7.99462C15 7.83991 14.9385 7.69154 14.8291 7.58215C14.7197 7.47275 14.5714 7.41129 14.4167 7.41129ZM10.7224 9.01546C10.5205 9.01546 10.3231 8.95559 10.1553 8.84342C9.9874 8.73124 9.85655 8.57181 9.77929 8.38528C9.70202 8.19875 9.68181 7.99349 9.7212 7.79547C9.76059 7.59745 9.85781 7.41555 10.0006 7.27279C10.1433 7.13002 10.3252 7.03279 10.5233 6.99341C10.7213 6.95402 10.9265 6.97423 11.1131 7.0515C11.2996 7.12876 11.459 7.2596 11.5712 7.42748C11.6834 7.59535 11.7432 7.79272 11.7432 7.99462C11.7429 8.26527 11.6353 8.52474 11.4439 8.71612C11.2525 8.9075 10.9931 9.01515 10.7224 9.01546Z" fill="black"/>
<path d="M14.4167 12.2238H7.37642C7.25121 11.7631 6.9779 11.3564 6.59864 11.0665C6.21939 10.7766 5.75526 10.6195 5.27787 10.6195C4.80049 10.6195 4.33636 10.7766 3.95711 11.0665C3.57785 11.3564 3.30454 11.7631 3.17933 12.2238H1.58333C1.42862 12.2238 1.28025 12.2853 1.17085 12.3946C1.06146 12.504 1 12.6524 1 12.8071C1 12.9618 1.06146 13.1102 1.17085 13.2196C1.28025 13.329 1.42862 13.3905 1.58333 13.3905H3.17933C3.30454 13.8511 3.57785 14.2578 3.95711 14.5478C4.33636 14.8377 4.80049 14.9948 5.27787 14.9948C5.75526 14.9948 6.21939 14.8377 6.59864 14.5478C6.9779 14.2578 7.25121 13.8511 7.37642 13.3905H14.4167C14.5714 13.3905 14.7197 13.329 14.8291 13.2196C14.9385 13.1102 15 12.9618 15 12.8071C15 12.6524 14.9385 12.504 14.8291 12.3946C14.7197 12.2853 14.5714 12.2238 14.4167 12.2238ZM5.27758 13.828C5.07568 13.828 4.87831 13.7681 4.71044 13.6559C4.54256 13.5437 4.41172 13.3843 4.33446 13.1978C4.25719 13.0113 4.23698 12.806 4.27636 12.608C4.31575 12.41 4.41298 12.2281 4.55574 12.0853C4.69851 11.9425 4.88041 11.8453 5.07843 11.8059C5.27645 11.7665 5.48171 11.7867 5.66824 11.864C5.85477 11.9413 6.0142 12.0721 6.12637 12.24C6.23855 12.4079 6.29842 12.6052 6.29842 12.8071C6.29795 13.0777 6.19025 13.3371 5.99891 13.5285C5.80757 13.7198 5.54818 13.8275 5.27758 13.828Z" fill="black"/>
</svg>
