<svg width="16" height="16" viewBox="0 0 16 16" fill="none" xmlns="http://www.w3.org/2000/svg">
<path d="M8 1C6.61553 1 5.26215 1.41054 4.11101 2.17971C2.95987 2.94888 2.06266 4.04213 1.53285 5.32122C1.00303 6.6003 0.86441 8.00776 1.13451 9.36563C1.4046 10.7235 2.07129 11.9708 3.05026 12.9497C4.02922 13.9287 5.2765 14.5954 6.63437 14.8655C7.99224 15.1356 9.3997 14.997 10.6788 14.4672C11.9579 13.9373 13.0511 13.0401 13.8203 11.889C14.5895 10.7378 15 9.38447 15 8C14.998 6.1441 14.2599 4.36479 12.9475 3.05247C11.6352 1.74015 9.8559 1.00201 8 1ZM13.0441 5.08333H11.1652C10.7446 4.10857 10.1908 3.19688 9.51958 2.37433C11.005 2.77854 12.2714 3.75186 13.0441 5.08333ZM10.625 8C10.6202 8.59391 10.5266 9.18377 10.3473 9.75H5.65267C5.47338 9.18377 5.37979 8.59391 5.375 8C5.37979 7.40608 5.47338 6.81623 5.65267 6.25H10.3473C10.5266 6.81623 10.6202 7.40608 10.625 8ZM6.1205 10.9167H9.8795C9.38439 11.8942 8.75142 12.7955 8 13.593C7.2483 12.7957 6.61531 11.8944 6.1205 10.9167ZM6.1205 5.08333C6.61561 4.10583 7.24858 3.20451 8 2.407C8.7517 3.20428 9.38469 4.10564 9.8795 5.08333H6.1205ZM6.48334 2.37433C5.81114 3.19671 5.25634 4.10841 4.83484 5.08333H2.95592C3.72933 3.75125 4.9968 2.77786 6.48334 2.37433ZM2.43559 6.25H4.44167C4.29044 6.82117 4.21204 7.40916 4.20834 8C4.21204 8.59084 4.29044 9.17883 4.44167 9.75H2.43559C2.07703 8.61088 2.07703 7.38912 2.43559 6.25ZM2.95592 10.9167H4.83484C5.25634 11.8916 5.81114 12.8033 6.48334 13.6257C4.9968 13.2221 3.72933 12.2487 2.95592 10.9167ZM9.51958 13.6257C10.1908 12.8031 10.7446 11.8914 11.1652 10.9167H13.0441C12.2714 12.2481 11.005 13.2215 9.51958 13.6257ZM13.5644 9.75H11.5583C11.7096 9.17883 11.788 8.59084 11.7917 8C11.788 7.40916 11.7096 6.82117 11.5583 6.25H13.5633C13.9218 7.38912 13.9218 8.61088 13.5633 9.75H13.5644Z" fill="black"/>
</svg>
