<svg width="16" height="16" viewBox="0 0 16 16" fill="none" xmlns="http://www.w3.org/2000/svg">
<path d="M2.16668 11.2083H3.625C4.26933 11.2083 4.79168 11.7307 4.79168 12.375V13.8333C4.79168 14.4777 4.26933 15 3.625 15H2.16668C1.52235 15 1 14.4777 1 13.8333V12.375C1 11.7307 1.52235 11.2083 2.16668 11.2083Z" fill="black"/>
<path d="M12.3749 11.2083H13.8333C14.4776 11.2083 14.9999 11.7307 14.9999 12.375V13.8333C14.9999 14.4777 14.4776 15 13.8333 15H12.3749C11.7306 15 11.2083 14.4777 11.2083 13.8333V12.375C11.2083 11.7307 11.7306 11.2083 12.3749 11.2083Z" fill="black"/>
<path d="M2.16668 6.10418H3.625C4.26933 6.10418 4.79168 6.62653 4.79168 7.27085V8.72918C4.79168 9.37351 4.26933 9.89586 3.625 9.89586H2.16668C1.52235 9.89583 1 9.37351 1 8.72918V7.27085C1 6.6265 1.52235 6.10418 2.16668 6.10418Z" fill="black"/>
<path d="M12.3749 6.10418H13.8333C14.4776 6.10418 14.9999 6.62653 14.9999 7.27085V8.72918C14.9999 9.37351 14.4776 9.89586 13.8333 9.89586H12.3749C11.7306 9.89586 11.2083 9.37351 11.2083 8.72918V7.27085C11.2083 6.6265 11.7306 6.10418 12.3749 6.10418Z" fill="black"/>
<path d="M2.16668 1H3.625C4.26933 1 4.79168 1.52235 4.79168 2.16668V3.625C4.79168 4.26933 4.26933 4.79168 3.625 4.79168H2.16668C1.52235 4.79168 1 4.26933 1 3.625V2.16668C1 1.52235 1.52235 1 2.16668 1Z" fill="black"/>
<path d="M7.27092 11.2083H8.72925C9.37358 11.2083 9.89592 11.7307 9.89592 12.375V13.8333C9.89592 14.4777 9.37358 15 8.72925 15H7.27092C6.6266 15 6.10425 14.4777 6.10425 13.8333V12.375C6.10428 11.7307 6.6266 11.2083 7.27092 11.2083Z" fill="black"/>
<path d="M7.27092 6.10418H8.72925C9.37358 6.10418 9.89592 6.62653 9.89592 7.27085V8.72918C9.89592 9.37351 9.37358 9.89586 8.72925 9.89586H7.27092C6.6266 9.89586 6.10425 9.37351 6.10425 8.72918V7.27085C6.10428 6.6265 6.6266 6.10418 7.27092 6.10418Z" fill="black"/>
<path d="M7.27092 1H8.72925C9.37358 1 9.89592 1.52235 9.89592 2.16668V3.625C9.89592 4.26933 9.37358 4.79168 8.72925 4.79168H7.27092C6.6266 4.79168 6.10425 4.26933 6.10425 3.625V2.16668C6.10428 1.52235 6.6266 1 7.27092 1Z" fill="black"/>
<path d="M12.3749 1H13.8333C14.4776 1 14.9999 1.52235 14.9999 2.16668V3.625C14.9999 4.26933 14.4776 4.79168 13.8333 4.79168H12.3749C11.7306 4.79168 11.2083 4.26933 11.2083 3.625V2.16668C11.2083 1.52235 11.7306 1 12.3749 1Z" fill="black"/>
</svg>
