<svg width="60" height="60" viewBox="0 0 60 60" fill="none" xmlns="http://www.w3.org/2000/svg">
<g clip-path="url(#clip0_26_3852)">
<path d="M57.803 22.6723L38.8405 3.7073C36.4936 1.36728 33.3147 0.0532379 30.0005 0.0532379C26.6864 0.0532379 23.5074 1.36728 21.1605 3.7073L2.19802 22.6723C1.49908 23.3668 0.944943 24.1931 0.567725 25.1033C0.190506 26.0135 -0.00228772 26.9895 0.00051848 27.9748V52.5173C0.00051848 54.5064 0.790695 56.4141 2.19722 57.8206C3.60374 59.2271 5.5114 60.0173 7.50052 60.0173H52.5005C54.4896 60.0173 56.3973 59.2271 57.8038 57.8206C59.2103 56.4141 60.0005 54.5064 60.0005 52.5173V27.9748C60.0033 26.9895 59.8105 26.0135 59.4333 25.1033C59.0561 24.1931 58.502 23.3668 57.803 22.6723ZM37.5005 55.0173H22.5005V45.1823C22.5005 43.1932 23.2907 41.2855 24.6972 39.879C26.1037 38.4725 28.0114 37.6823 30.0005 37.6823C31.9896 37.6823 33.8973 38.4725 35.3038 39.879C36.7103 41.2855 37.5005 43.1932 37.5005 45.1823V55.0173ZM55.0005 52.5173C55.0005 53.1803 54.7371 53.8162 54.2683 54.2851C53.7994 54.7539 53.1636 55.0173 52.5005 55.0173H42.5005V45.1823C42.5005 41.8671 41.1836 38.6877 38.8394 36.3435C36.4952 33.9993 33.3157 32.6823 30.0005 32.6823C26.6853 32.6823 23.5059 33.9993 21.1617 36.3435C18.8175 38.6877 17.5005 41.8671 17.5005 45.1823V55.0173H7.50052C6.83748 55.0173 6.20159 54.7539 5.73275 54.2851C5.26391 53.8162 5.00052 53.1803 5.00052 52.5173V27.9748C5.00284 27.3123 5.26599 26.6773 5.73302 26.2073L24.6955 7.2498C26.1048 5.84713 28.0122 5.05966 30.0005 5.05966C31.9889 5.05966 33.8963 5.84713 35.3055 7.2498L54.268 26.2148C54.7332 26.6829 54.9962 27.3149 55.0005 27.9748V52.5173Z" fill="#374957"/>
</g>
<defs>
<clipPath id="clip0_26_3852">
<rect width="60" height="60" fill="white"/>
</clipPath>
</defs>
</svg>
