<svg width="16" height="16" viewBox="0 0 16 16" fill="none" xmlns="http://www.w3.org/2000/svg">
<path d="M7.6875 1.4125C7.60937 1.45625 7.50625 1.55 7.45312 1.62188L7.35937 1.75625L7.34375 5.06563L7.32812 8.375L6.54687 7.59063C6.11875 7.15938 5.71562 6.78125 5.65 6.75C5.36875 6.60313 5.09687 6.64375 4.87187 6.87188C4.65 7.09063 4.60312 7.36563 4.7375 7.6375C4.76562 7.69063 5.40937 8.35625 6.16875 9.11875C7.64687 10.6063 7.70937 10.6562 8 10.6562C8.29062 10.6562 8.35312 10.6063 9.83125 9.11875C10.5906 8.35625 11.2344 7.69063 11.2594 7.64063C11.3969 7.36563 11.3375 7.05938 11.1125 6.85C11.0344 6.77813 10.9344 6.70938 10.8844 6.69688C10.7375 6.65625 10.4906 6.67188 10.375 6.73125C10.3156 6.7625 9.90312 7.14688 9.4625 7.5875L8.65625 8.3875L8.65 5.075L8.64062 1.75938L8.55625 1.6375C8.41875 1.44375 8.275 1.3625 8.03437 1.35C7.8625 1.34063 7.80312 1.35313 7.6875 1.4125Z" fill="black"/>
<path d="M1.6875 9.4125C1.60937 9.45625 1.50625 9.55 1.45312 9.62187L1.35937 9.75625V11.4312V13.1094L1.44062 13.3188C1.67187 13.9125 2.0875 14.3281 2.68125 14.5594L2.89062 14.6406H7.96875H13.0469L13.2656 14.5719C13.8531 14.3844 14.3187 13.9344 14.5594 13.3188L14.6406 13.1094V11.4344V9.75938L14.5563 9.6375C14.5094 9.57188 14.4187 9.48125 14.3531 9.4375C14.2562 9.37187 14.2031 9.35938 13.9969 9.35938C13.7781 9.35938 13.7438 9.36875 13.6219 9.45312C13.55 9.50312 13.4562 9.60938 13.4156 9.68437L13.3437 9.82188V11.2562C13.3437 12.2531 13.3312 12.7344 13.3063 12.8375C13.2562 13.0375 13.0375 13.2563 12.8375 13.3062C12.6344 13.3594 3.37187 13.3594 3.17187 13.3094C3.00625 13.2687 2.80937 13.1062 2.73125 12.9469C2.675 12.8375 2.67187 12.7156 2.65625 11.2938L2.64062 9.75938L2.55625 9.6375C2.41875 9.44375 2.275 9.3625 2.03437 9.35C1.8625 9.34062 1.80312 9.35313 1.6875 9.4125Z" fill="black"/>
</svg>
