<svg width="16" height="16" viewBox="0 0 16 16" fill="none" xmlns="http://www.w3.org/2000/svg">
<path d="M14.3797 1.62063C13.9816 1.22321 13.4422 1 12.8797 1C12.3172 1 11.7778 1.22321 11.3797 1.62063L1.85772 11.1427C1.58504 11.4138 1.36883 11.7363 1.22161 12.0916C1.07438 12.4468 0.999064 12.8277 1.00001 13.2123V14.4142C1.00001 14.5695 1.06169 14.7184 1.17149 14.8282C1.28128 14.938 1.4302 14.9997 1.58547 14.9997H2.78744C3.17195 15.0008 3.55286 14.9256 3.90811 14.7785C4.26336 14.6313 4.5859 14.4152 4.85706 14.1426L14.3797 4.61997C14.7769 4.22197 15 3.68262 15 3.1203C15 2.55798 14.7769 2.01863 14.3797 1.62063ZM4.02921 13.3147C3.69901 13.6427 3.25286 13.8274 2.78744 13.8288H2.17094V13.2123C2.17035 12.9815 2.21553 12.753 2.30386 12.5398C2.3922 12.3267 2.52194 12.1332 2.68557 11.9705L9.91197 4.74409L11.2585 6.09066L4.02921 13.3147ZM13.5512 3.79212L12.084 5.25989L10.7375 3.91624L12.2052 2.44848C12.2937 2.36025 12.3986 2.29031 12.514 2.24264C12.6295 2.19496 12.7532 2.17049 12.8781 2.17063C13.003 2.17077 13.1267 2.1955 13.242 2.24343C13.3573 2.29135 13.4621 2.36153 13.5503 2.44994C13.6386 2.53836 13.7085 2.64329 13.7562 2.75874C13.8039 2.87419 13.8283 2.9979 13.8282 3.1228C13.8281 3.24771 13.8033 3.37136 13.7554 3.48671C13.7075 3.60205 13.6373 3.70683 13.5489 3.79505L13.5512 3.79212Z" fill="black"/>
</svg>
