<svg width="16" height="16" viewBox="0 0 16 16" fill="none" xmlns="http://www.w3.org/2000/svg">
<path d="M12.0383 7.91145H9.25427C8.94094 7.91145 8.64043 7.78698 8.41887 7.56541C8.19731 7.34385 8.07284 7.04335 8.07284 6.73001V3.93828C8.07364 3.66654 8.01194 3.39826 7.89251 3.15417C7.77308 2.91008 7.59911 2.69673 7.38406 2.5306C7.18028 2.36923 6.94214 2.25685 6.68802 2.20215C6.4339 2.14746 6.17062 2.15191 5.91849 2.21516C4.48639 2.57066 3.21852 3.40431 2.32455 4.57824C1.43058 5.75218 0.964068 7.19608 1.00216 8.67115C1.04025 10.1462 1.58067 11.5641 2.53404 12.6903C3.4874 13.8166 4.79662 14.5837 6.24516 14.8648C7.87383 15.1765 9.56006 14.8538 10.9585 13.9627C12.357 13.0716 13.3619 11.6796 13.7674 10.0717C13.8308 9.81925 13.8355 9.55559 13.7809 9.30107C13.7263 9.04655 13.6139 8.80798 13.4525 8.60377C13.2844 8.38902 13.0698 8.21515 12.8249 8.09524C12.58 7.97533 12.311 7.91249 12.0383 7.91145ZM12.622 9.78284C12.3958 10.6936 11.9317 11.528 11.2773 12.2007C10.6228 12.8733 9.80147 13.36 8.8972 13.611C7.99293 13.8621 7.0382 13.8684 6.13068 13.6294C5.22315 13.3904 4.3954 12.9146 3.73207 12.2508C3.06875 11.5869 2.59366 10.7587 2.35541 9.85101C2.11716 8.94329 2.12429 7.98857 2.37607 7.08451C2.62786 6.18044 3.11526 5.35948 3.78842 4.70559C4.46159 4.0517 5.29636 3.58835 6.20735 3.36292C6.28529 3.34345 6.3667 3.3425 6.44507 3.36014C6.52344 3.37779 6.59659 3.41354 6.65866 3.46453C6.73196 3.52041 6.79141 3.59243 6.83238 3.675C6.87336 3.75757 6.89477 3.84847 6.89495 3.94064V6.73001C6.89495 7.35669 7.14389 7.95769 7.58702 8.40082C8.03014 8.84394 8.63115 9.09288 9.25782 9.09288H12.0413C12.1343 9.09326 12.2259 9.11472 12.3094 9.15565C12.3929 9.19658 12.4661 9.25591 12.5233 9.32917C12.5735 9.39211 12.6085 9.46581 12.6255 9.54451C12.6425 9.62321 12.6417 9.70478 12.622 9.78284Z" fill="black"/>
<path d="M14.9552 5.22132C14.6832 4.22152 14.1549 3.31006 13.4225 2.57714C12.6901 1.84422 11.779 1.31526 10.7794 1.04258C10.6746 1.01441 10.5666 1.00011 10.458 1.00005C10.3019 0.99857 10.1471 1.02803 10.0025 1.08674C9.85784 1.14545 9.72627 1.23224 9.61537 1.34209C9.50448 1.45195 9.41645 1.58269 9.35637 1.72677C9.2963 1.87084 9.26537 2.02539 9.26538 2.18149V4.95786C9.26538 5.42787 9.45209 5.87862 9.78443 6.21096C10.1168 6.54331 10.5675 6.73001 11.0375 6.73001H13.8251C14.0075 6.72826 14.1869 6.68449 14.3496 6.60211C14.5123 6.51973 14.6538 6.40095 14.7631 6.25501C14.8724 6.10907 14.9466 5.93989 14.9799 5.76061C15.0132 5.58133 15.0048 5.39679 14.9552 5.22132ZM13.4796 5.54858H11.0352C10.8785 5.54858 10.7283 5.48634 10.6175 5.37556C10.5067 5.26478 10.4445 5.11453 10.4445 4.95786L10.4397 2.18562C10.4441 2.1825 10.4492 2.18065 10.4545 2.18031H10.4699C11.2745 2.39951 12.0075 2.82591 12.5959 3.41694C13.1842 4.00797 13.6072 4.74297 13.8228 5.54858H13.4796Z" fill="black"/>
</svg>
