<svg width="16" height="16" viewBox="0 0 16 16" fill="none" xmlns="http://www.w3.org/2000/svg">
<path d="M14.8364 14.0122L11.3573 10.5332C12.3054 9.37364 12.7716 7.89406 12.6593 6.40048C12.5471 4.9069 11.8651 3.51358 10.7544 2.50874C9.64371 1.50389 8.18928 0.964388 6.69195 1.00183C5.19463 1.03926 3.76897 1.65078 2.70987 2.70987C1.65078 3.76897 1.03926 5.19463 1.00183 6.69195C0.964388 8.18928 1.50389 9.64371 2.50874 10.7544C3.51358 11.8651 4.9069 12.5471 6.40048 12.6593C7.89406 12.7716 9.37364 12.3054 10.5332 11.3573L14.0122 14.8364C14.1222 14.9426 14.2694 15.0013 14.4222 15C14.575 14.9987 14.7212 14.9374 14.8293 14.8293C14.9374 14.7212 14.9987 14.575 15 14.4222C15.0013 14.2694 14.9426 14.1222 14.8364 14.0122ZM6.8472 11.51C5.92498 11.51 5.02347 11.2366 4.25667 10.7242C3.48987 10.2118 2.89222 9.48361 2.5393 8.63159C2.18638 7.77957 2.09404 6.84203 2.27396 5.93753C2.45388 5.03302 2.89797 4.20219 3.55008 3.55008C4.20219 2.89797 5.03302 2.45388 5.93753 2.27396C6.84203 2.09404 7.77957 2.18638 8.63159 2.5393C9.48361 2.89222 10.2118 3.48987 10.7242 4.25667C11.2366 5.02347 11.51 5.92498 11.51 6.8472C11.5086 8.08343 11.0169 9.26864 10.1428 10.1428C9.26864 11.0169 8.08343 11.5086 6.8472 11.51Z" fill="black"/>
</svg>
