<svg width="16" height="16" viewBox="0 0 16 16" fill="none" xmlns="http://www.w3.org/2000/svg">
<path d="M13.8333 2H6.85492V3.75H5.66667V2H4.5V3.75H3.31175V2H2.16667C1.85725 2 1.5605 2.12292 1.34171 2.34171C1.12292 2.5605 1 2.85725 1 3.16667L1 4.33333C1 4.64275 1.12292 4.9395 1.34171 5.15829C1.5605 5.37708 1.85725 5.5 2.16667 5.5H13.8333C14.1428 5.5 14.4395 5.37708 14.6583 5.15829C14.8771 4.9395 15 4.64275 15 4.33333V3.16667C15 2.85725 14.8771 2.5605 14.6583 2.34171C14.4395 2.12292 14.1428 2 13.8333 2Z" fill="black"/>
<path d="M13.8333 6.66666H6.85492V8.41666H5.66667V6.66666H4.5V8.41666H3.31175V6.66666H2.16667C1.85725 6.66666 1.5605 6.78958 1.34171 7.00837C1.12292 7.22717 1 7.52391 1 7.83333L1 9C1 9.30942 1.12292 9.60616 1.34171 9.82496C1.5605 10.0437 1.85725 10.1667 2.16667 10.1667H13.8333C14.1428 10.1667 14.4395 10.0437 14.6583 9.82496C14.8771 9.60616 15 9.30942 15 9V7.83333C15 7.52391 14.8771 7.22717 14.6583 7.00837C14.4395 6.78958 14.1428 6.66666 13.8333 6.66666Z" fill="black"/>
<path d="M13.8333 11.3333H6.85492V13.0833H5.66667V11.3333H4.5V13.0833H3.31175V11.3333H2.16667C1.85725 11.3333 1.5605 11.4563 1.34171 11.675C1.12292 11.8938 1 12.1906 1 12.5L1 13.6667C1 13.9761 1.12292 14.2728 1.34171 14.4916C1.5605 14.7104 1.85725 14.8333 2.16667 14.8333H13.8333C14.1428 14.8333 14.4395 14.7104 14.6583 14.4916C14.8771 14.2728 15 13.9761 15 13.6667V12.5C15 12.1906 14.8771 11.8938 14.6583 11.675C14.4395 11.4563 14.1428 11.3333 13.8333 11.3333Z" fill="black"/>
</svg>
