<svg width="16" height="16" viewBox="0 0 16 16" fill="none" xmlns="http://www.w3.org/2000/svg">
<path d="M9.68758 15H6.18758V12.9507C5.57932 12.7355 5.01593 12.41 4.52567 11.9906L2.75 13.0167L1 9.98333L2.77508 8.95958C2.65848 8.32517 2.65848 7.67483 2.77508 7.04042L1 6.01667L2.75 2.98333L4.52567 4.00942C5.01593 3.58996 5.57932 3.26446 6.18758 3.04925V1H9.68758V3.04925C10.2959 3.26446 10.8592 3.58996 11.3495 4.00942L13.1252 2.98333L14.8752 6.01667L13.1001 7.04042C13.2167 7.67483 13.2167 8.32517 13.1001 8.95958L14.8752 9.98333L13.1252 13.0167L11.3495 11.9912C10.8592 12.4104 10.2958 12.7357 9.68758 12.9507V15ZM7.35425 13.8333H8.52092V12.0676L8.959 11.9544C9.67767 11.7682 10.3318 11.3892 10.8508 10.8583L11.1675 10.5357L12.6976 11.4195L13.2809 10.4092L11.7526 9.52658L11.8728 9.09142C12.0703 8.37563 12.0703 7.6197 11.8728 6.90392L11.7526 6.46875L13.2809 5.58617L12.6976 4.57583L11.1675 5.46192L10.8508 5.14167C10.3315 4.61162 9.67742 4.23343 8.959 4.04792L8.52092 3.93242V2.16667H7.35425V3.93242L6.91617 4.04558C6.19749 4.23176 5.54335 4.61077 5.02442 5.14167L4.70767 5.46425L3.17758 4.57817L2.59425 5.5885L4.12258 6.47108L4.00242 6.90625C3.80488 7.62204 3.80488 8.37796 4.00242 9.09375L4.12258 9.52892L2.59425 10.4115L3.17758 11.4218L4.70767 10.5381L5.02442 10.8607C5.54363 11.3907 6.19775 11.7689 6.91617 11.9544L7.35425 12.0676V13.8333ZM7.93758 10.3333C7.47609 10.3333 7.02497 10.1965 6.64125 9.9401C6.25754 9.68371 5.95847 9.31929 5.78186 8.89293C5.60526 8.46657 5.55905 7.99741 5.64908 7.54479C5.73912 7.09217 5.96135 6.67641 6.28767 6.35008C6.61399 6.02376 7.02975 5.80153 7.48237 5.7115C7.935 5.62147 8.40415 5.66768 8.83051 5.84428C9.25687 6.02089 9.62129 6.31995 9.87768 6.70367C10.1341 7.08738 10.2709 7.53851 10.2709 8C10.2709 8.61884 10.0251 9.21233 9.5875 9.64992C9.14991 10.0875 8.55642 10.3333 7.93758 10.3333ZM7.93758 6.83333C7.70684 6.83333 7.48128 6.90176 7.28942 7.02995C7.09756 7.15815 6.94803 7.34036 6.85972 7.55354C6.77142 7.76672 6.74832 8.00129 6.79333 8.22761C6.83835 8.45392 6.94946 8.6618 7.11263 8.82496C7.27579 8.98812 7.48367 9.09923 7.70998 9.14425C7.93629 9.18927 8.17087 9.16616 8.38405 9.07786C8.59723 8.98956 8.77944 8.84002 8.90763 8.64816C9.03583 8.45631 9.10425 8.23074 9.10425 8C9.10425 7.69058 8.98133 7.39383 8.76254 7.17504C8.54375 6.95625 8.247 6.83333 7.93758 6.83333Z" fill="black"/>
</svg>
