<svg width="16" height="16" viewBox="0 0 16 16" fill="none" xmlns="http://www.w3.org/2000/svg">
<path d="M11.6721 2.24845L8.01758 1.02989C7.89792 0.990037 7.76857 0.990037 7.64891 1.02989L3.99439 2.24845C3.41334 2.44147 2.9079 2.81268 2.54987 3.30935C2.19184 3.80603 1.99944 4.4029 2 5.01516V8.00003C2 12.4117 7.36659 14.8483 7.59642 14.9498C7.67098 14.9829 7.75166 15 7.83324 15C7.91483 15 7.99551 14.9829 8.07007 14.9498C8.2999 14.8483 13.6665 12.4117 13.6665 8.00003V5.01516C13.6671 4.4029 13.4746 3.80603 13.1166 3.30935C12.7586 2.81268 12.2531 2.44147 11.6721 2.24845ZM12.4998 8.00003C12.4998 11.1821 8.81381 13.2692 7.83324 13.7685C6.85151 13.271 3.16665 11.1902 3.16665 8.00003V5.01516C3.16668 4.64783 3.28231 4.28982 3.49714 3.99186C3.71197 3.6939 4.01512 3.4711 4.36363 3.35502L7.83324 2.19829L11.3029 3.35502C11.6514 3.4711 11.9545 3.6939 12.1693 3.99186C12.3842 4.28982 12.4998 4.64783 12.4998 5.01516V8.00003Z" fill="black"/>
<path d="M9.75814 5.84174L7.31518 8.2917L6.0062 6.92672C5.95367 6.86929 5.89017 6.82294 5.81945 6.79043C5.74873 6.75791 5.67222 6.73987 5.59443 6.73738C5.51663 6.73489 5.43912 6.74799 5.36647 6.77592C5.29381 6.80385 5.22748 6.84603 5.17138 6.89999C5.11529 6.95395 5.07055 7.01859 5.03982 7.0901C5.00909 7.16161 4.99298 7.23855 4.99245 7.31639C4.99191 7.39422 5.00696 7.47137 5.0367 7.5433C5.06644 7.61523 5.11028 7.68048 5.16563 7.73521L6.51077 9.13519C6.61109 9.24354 6.73234 9.33042 6.86719 9.39058C7.00205 9.45074 7.1477 9.48292 7.29534 9.48518H7.31459C7.45929 9.48566 7.60264 9.45739 7.73632 9.40201C7.87001 9.34664 7.99136 9.26526 8.09333 9.1626L10.5853 6.67064C10.6397 6.61633 10.6829 6.55183 10.7124 6.48082C10.7419 6.40982 10.7571 6.3337 10.7572 6.25681C10.7573 6.17992 10.7422 6.10377 10.7129 6.0327C10.6835 5.96163 10.6405 5.89704 10.5862 5.84261C10.5319 5.78819 10.4674 5.74499 10.3964 5.71549C10.3253 5.68599 10.2492 5.67077 10.1723 5.67069C10.0954 5.6706 10.0193 5.68567 9.94822 5.71502C9.87716 5.74437 9.81257 5.78743 9.75814 5.84174Z" fill="black"/>
</svg>
