<svg width="16" height="16" viewBox="0 0 16 16" fill="none" xmlns="http://www.w3.org/2000/svg">
<path d="M11.6721 2.24845L8.01758 1.02989C7.89792 0.990037 7.76857 0.990037 7.64891 1.02989L3.99439 2.24845C3.41334 2.44147 2.9079 2.81268 2.54987 3.30935C2.19184 3.80603 1.99944 4.4029 2 5.01516V8.00003C2 12.4117 7.36659 14.8483 7.59642 14.9498C7.67098 14.9829 7.75166 15 7.83324 15C7.91483 15 7.99551 14.9829 8.07007 14.9498C8.2999 14.8483 13.6665 12.4117 13.6665 8.00003V5.01516C13.6671 4.4029 13.4746 3.80603 13.1166 3.30935C12.7586 2.81268 12.2531 2.44147 11.6721 2.24845ZM10.5854 6.6683L8.09341 9.16027C7.99143 9.26292 7.87008 9.3443 7.7364 9.39968C7.60272 9.45505 7.45937 9.48332 7.31467 9.48284H7.29542C7.14777 9.48058 7.00212 9.4484 6.86727 9.38824C6.73242 9.32809 6.61117 9.2412 6.51085 9.13285L5.1657 7.73287C5.10745 7.67882 5.06085 7.61344 5.02877 7.54073C4.99669 7.46803 4.9798 7.38954 4.97914 7.31007C4.97849 7.23061 4.99407 7.15185 5.02495 7.07862C5.05582 7.0054 5.10133 6.93925 5.15868 6.88425C5.21604 6.82924 5.28403 6.78654 5.35848 6.75875C5.43293 6.73096 5.51227 6.71868 5.59164 6.72266C5.67101 6.72663 5.74873 6.74678 5.82003 6.78187C5.89133 6.81697 5.9547 6.86625 6.00627 6.92672L7.31525 8.2917L9.75822 5.84173C9.86823 5.73548 10.0156 5.67668 10.1685 5.67801C10.3215 5.67934 10.4678 5.74069 10.5759 5.84884C10.6841 5.95699 10.7454 6.1033 10.7468 6.25624C10.7481 6.40919 10.6893 6.55654 10.583 6.66655L10.5854 6.6683Z" fill="black"/>
</svg>
