<svg width="16" height="16" viewBox="0 0 16 16" fill="none" xmlns="http://www.w3.org/2000/svg">
<path d="M1.76949 8.12642L3.8473 9.64393L3.0582 12.0877C2.93068 12.4667 2.92906 12.8768 3.05359 13.2568C3.17813 13.6368 3.42214 13.9664 3.74925 14.1964C4.07075 14.4338 4.46037 14.561 4.86003 14.559C5.25969 14.557 5.64802 14.426 5.96713 14.1853L7.99883 12.69L10.0311 14.1836C10.352 14.4196 10.7396 14.5479 11.1379 14.5498C11.5363 14.5517 11.9251 14.4273 12.2483 14.1944C12.5715 13.9615 12.8125 13.6321 12.9367 13.2535C13.0609 12.875 13.0619 12.4668 12.9395 12.0877L12.1504 9.64393L14.2282 8.12642C14.5487 7.89209 14.7869 7.56247 14.9089 7.18463C15.0309 6.8068 15.0303 6.40008 14.9074 6.02258C14.7844 5.64507 14.5452 5.31609 14.2241 5.08261C13.903 4.84914 13.5163 4.72312 13.1192 4.72255H10.5669L9.7924 2.30856C9.67061 1.92858 9.43128 1.59709 9.10892 1.36191C8.78657 1.12673 8.39786 1 7.99883 1C7.59981 1 7.21109 1.12673 6.88874 1.36191C6.56639 1.59709 6.32706 1.92858 6.20526 2.30856L5.43075 4.72255H2.88077C2.48373 4.72312 2.09703 4.84914 1.7759 5.08261C1.45477 5.31609 1.21563 5.64507 1.09264 6.02258C0.969653 6.40008 0.969109 6.8068 1.09109 7.18463C1.21306 7.56247 1.45132 7.89209 1.77183 8.12642H1.76949Z" fill="black"/>
</svg>
