<svg width="16" height="16" viewBox="0 0 16 16" fill="none" xmlns="http://www.w3.org/2000/svg">
<path d="M14.9018 6.01992C14.7825 5.64004 14.5441 5.30865 14.2218 5.07476C13.8996 4.84088 13.5106 4.7169 13.1124 4.72118H10.5634L9.78916 2.30808C9.66741 1.92823 9.42817 1.59687 9.10594 1.36178C8.7837 1.12668 8.39513 1 7.99625 1C7.59737 1 7.2088 1.12668 6.88657 1.36178C6.56434 1.59687 6.3251 1.92823 6.20334 2.30808L5.42912 4.72118H2.88008C2.48319 4.72175 2.09663 4.84772 1.77561 5.08111C1.4546 5.3145 1.21555 5.64336 1.09261 6.02073C0.969665 6.39809 0.96912 6.80466 1.09105 7.18235C1.21298 7.56005 1.45115 7.88955 1.77154 8.1238L3.84625 9.64074L3.05744 12.0836C2.92997 12.4625 2.92835 12.8724 3.05284 13.2523C3.17732 13.6321 3.42124 13.9616 3.74823 14.1916C4.06962 14.4289 4.45909 14.556 4.85861 14.554C5.25812 14.552 5.6463 14.421 5.9653 14.1805L7.99625 12.6857L10.0278 14.1787C10.3486 14.4147 10.736 14.5429 11.1342 14.5448C11.5324 14.5468 11.921 14.4224 12.2441 14.1895C12.5672 13.9567 12.8082 13.6274 12.9323 13.249C13.0565 12.8706 13.0574 12.4626 12.9351 12.0836L12.1463 9.64074L14.2233 8.1238C14.5473 7.89249 14.7883 7.56299 14.9105 7.18408C15.0327 6.80516 15.0297 6.39697 14.9018 6.01992ZM13.5348 7.18154L11.1171 8.94878C11.0178 9.02123 10.9439 9.12319 10.9059 9.24011C10.868 9.35704 10.868 9.48296 10.9059 9.5999L11.8248 12.4412C11.8713 12.5854 11.8709 12.7405 11.8236 12.8844C11.7764 13.0283 11.6848 13.1534 11.5619 13.2419C11.439 13.3305 11.2913 13.3777 11.1398 13.3769C10.9884 13.3762 10.8411 13.3274 10.7192 13.2376L8.34165 11.4873C8.24151 11.4138 8.1205 11.3741 7.99625 11.3741C7.872 11.3741 7.751 11.4138 7.65086 11.4873L5.27334 13.2376C5.15145 13.3286 5.00376 13.3784 4.85167 13.3798C4.69958 13.3811 4.55101 13.3341 4.42749 13.2453C4.30397 13.1566 4.21192 13.0308 4.16469 12.8862C4.11746 12.7417 4.1175 12.5858 4.16481 12.4412L5.08664 9.5999C5.12452 9.48296 5.12449 9.35704 5.08656 9.24011C5.04863 9.12319 4.97475 9.02123 4.87544 8.94878L2.45767 7.18154C2.3359 7.09239 2.24543 6.96704 2.19917 6.8234C2.15291 6.67975 2.15322 6.52516 2.20007 6.38171C2.24692 6.23825 2.3379 6.11327 2.46002 6.02462C2.58215 5.93596 2.72917 5.88817 2.88008 5.88806H5.85562C5.97914 5.88806 6.09947 5.84885 6.19929 5.77608C6.29911 5.70332 6.37325 5.60075 6.41105 5.48315L7.31538 2.66456C7.3618 2.52032 7.45279 2.39454 7.57525 2.30531C7.6977 2.21607 7.84532 2.168 7.99684 2.168C8.14836 2.168 8.29597 2.21607 8.41843 2.30531C8.54089 2.39454 8.63187 2.52032 8.67829 2.66456L9.58262 5.48315C9.62042 5.60075 9.69457 5.70332 9.79438 5.77608C9.8942 5.84885 10.0145 5.88806 10.1381 5.88806H13.1136C13.2645 5.88817 13.4115 5.93596 13.5336 6.02462C13.6558 6.11327 13.7468 6.23825 13.7936 6.38171C13.8405 6.52516 13.8408 6.67975 13.7945 6.8234C13.7482 6.96704 13.6578 7.09239 13.536 7.18154H13.5348Z" fill="black"/>
</svg>
