<svg width="16" height="16" viewBox="0 0 16 16" fill="none" xmlns="http://www.w3.org/2000/svg">
<path d="M5.91244 6.39961C6.14052 6.62768 6.14052 6.99692 5.91244 7.22442C5.68436 7.45249 5.31513 7.45249 5.08763 7.22442C4.85956 6.99634 4.85956 6.6271 5.08763 6.39961C5.31571 6.17153 5.68495 6.17153 5.91244 6.39961ZM13.9925 9.94908L13.6629 10.2787C13.6472 10.9979 13.3684 11.7119 12.8259 12.2613L10.9785 14.1326C10.4285 14.6897 9.69465 14.9977 8.91185 15H8.90193C8.1232 15 7.39114 14.6967 6.84049 14.146L2.51463 9.85691C2.13548 9.47834 1.95232 8.95744 2.01065 8.42604L2.45688 4.39184C2.48663 4.12585 2.69254 3.9141 2.95737 3.87794L6.97582 3.32846C7.51947 3.25613 8.06662 3.44104 8.45044 3.82486L12.8107 8.14839C13.0365 8.37413 13.2173 8.62845 13.3538 8.8997C13.8274 8.21955 13.7609 7.26933 13.1543 6.66268L8.72635 2.34324C8.59277 2.20966 8.40844 2.14783 8.22995 2.17291L4.2115 2.72239C3.89126 2.76556 3.59785 2.54215 3.5541 2.22366C3.51093 1.90458 3.73434 1.61059 4.05283 1.56685L8.07187 1.01678C8.60911 0.940366 9.16209 1.12819 9.54649 1.51376L13.9733 5.83321C15.1084 6.96776 15.1148 8.8122 13.9919 9.94966L13.9925 9.94908ZM11.9871 8.97494L7.6268 4.65141C7.49672 4.52133 7.31415 4.46125 7.13274 4.484L3.56577 4.97224L3.1697 8.55379C3.15045 8.73053 3.21111 8.90436 3.33711 9.02977L7.66297 13.3189C7.99487 13.6514 8.43411 13.8328 8.90135 13.8328H8.90718C9.37733 13.8316 9.81773 13.6467 10.1473 13.3119L11.9947 11.4406C12.6684 10.7581 12.6649 9.65159 11.9865 8.97378L11.9871 8.97494Z" fill="black"/>
</svg>
